<svg height="40" viewBox="0 0 120 40" width="120" xmlns="http://www.w3.org/2000/svg"><rect fill="#221f1f" height="39" rx="3.5" stroke="#4d4b4b" width="119" x=".5" y=".5"/><g fill="#fff"><path d="m26.8683 19.7644c-.0265-3.0324 2.4156-4.5074 2.5275-4.5764-1.3833-2.0729-3.5273-2.3561-4.28-2.3781-1.8003-.1944-3.5467 1.107-4.4641 1.107-.9358 0-2.3486-1.0882-3.8702-1.0568-1.959.0313-3.7918 1.1969-4.7967 3.0063-2.07393 3.6911-.5269 9.1142 1.4606 12.0976.9937 1.4613 2.1563 3.092 3.6758 3.0345 1.4881-.0627 2.0434-.9742 3.8386-.9742 1.779 0 2.3008.9742 3.8509.9376 1.5968-.0261 2.6017-1.4676 3.5609-2.9415 1.1483-1.6746 1.6101-3.3241 1.6284-3.4088-.0387-.0115-3.1012-1.2136-3.1317-4.8472z"/><path d="m23.939 10.8468c.8005-1.02861 1.3477-2.42725 1.1952-3.8468-1.1575.05227-2.6059.82267-3.4399 1.82931-.7375.88644-1.3965 2.33839-1.2267 3.70459 1.3009.0993 2.6364-.6742 3.4714-1.6871z"/><path d="m50.281 30.1569h-2.044l-1.12-3.518h-3.892l-1.067 3.518h-1.99l3.856-11.977h2.381zm-3.501-4.994-1.013-3.128c-.107-.319-.308-1.072-.604-2.256h-.036c-.118.509-.308 1.262-.569 2.256l-.994 3.128z"/><path d="m60.1959 25.7319c0 1.469-.397 2.63-1.191 3.482-.711.759-1.594 1.138-2.648 1.138-1.138 0-1.955-.409-2.452-1.226h-.036v4.549h-1.919v-9.312c0-.923-.024-1.871-.071-2.843h1.688l.107 1.369h.036c.64-1.031 1.611-1.546 2.914-1.546 1.019 0 1.869.402 2.55 1.208.682.806 1.022 1.866 1.022 3.181zm-1.955.07c0-.841-.189-1.534-.569-2.079-.415-.569-.972-.853-1.67-.853-.473 0-.904.158-1.288.471-.385.315-.637.726-.755 1.236-.059.238-.089.432-.089.585v1.44c0 .628.193 1.158.578 1.591s.886.649 1.501.649c.723 0 1.285-.279 1.688-.835.402-.558.604-1.292.604-2.205z"/><path d="m70.129 25.7319c0 1.469-.397 2.63-1.192 3.482-.71.759-1.593 1.138-2.647 1.138-1.138 0-1.955-.409-2.452-1.226h-.036v4.549h-1.919v-9.312c0-.923-.024-1.871-.071-2.843h1.688l.107 1.369h.036c.639-1.031 1.61-1.546 2.914-1.546 1.018 0 1.868.402 2.551 1.208.68.806 1.021 1.866 1.021 3.181zm-1.955.07c0-.841-.19-1.534-.57-2.079-.415-.569-.97-.853-1.67-.853-.474 0-.904.158-1.289.471-.385.315-.636.726-.754 1.236-.059.238-.089.432-.089.585v1.44c0 .628.193 1.158.576 1.591.385.432.886.649 1.503.649.723 0 1.285-.279 1.688-.835.404-.558.605-1.292.605-2.205z"/><path d="m81.235 26.7979c0 1.019-.354 1.848-1.064 2.488-.78.699-1.867 1.049-3.263 1.049-1.2891 0-2.322-.248-3.104-.746l.445-1.599c.842.509 1.767.765 2.774.765.723 0 1.285-.164 1.689-.49.402-.326.603-.763.603-1.309 0-.486-.166-.896-.498-1.228-.33-.332-.882-.641-1.652-.926-2.097-.782-3.145-1.928-3.145-3.434 0-.985.367-1.792 1.102-2.42.733-.629 1.71-.943 2.932-.943 1.09 0 1.995.19 2.718.569l-.48 1.564c-.675-.367-1.438-.551-2.292-.551-.675 0-1.202.167-1.58.498-.319.296-.48.657-.48 1.084 0 .473.183.865.55 1.173.32.284.9.592 1.742.924 1.03.415 1.787.9 2.274 1.456.487.554.729 1.248.729 2.076z"/><path d="m87.5791 22.9599h-2.115v4.193c0 1.066.373 1.599 1.12 1.599.343 0 .627-.03.852-.089l.053 1.457c-.378.141-.876.212-1.492.212-.758 0-1.35-.231-1.777-.693-.426-.463-.64-1.238-.64-2.328v-4.353h-1.26v-1.44h1.26v-1.581l1.885-.569v2.15h2.115z"/><path d="m97.1221 25.7669c0 1.328-.38 2.417-1.138 3.27-.795.877-1.849 1.315-3.164 1.315-1.267 0-2.276-.42-3.028-1.261s-1.129-1.902-1.129-3.181c0-1.338.387-2.434 1.164-3.287.775-.853 1.821-1.28 3.136-1.28 1.267 0 2.287.42 3.056 1.262.736.817 1.103 1.871 1.103 3.162zm-1.991.062c0-.797-.17-1.48-.515-2.049-.402-.689-.977-1.033-1.723-1.033-.771 0-1.357.345-1.76 1.033-.345.571-.515 1.265-.515 2.085 0 .796.17 1.48.515 2.048.415.689.995 1.033 1.742 1.033.733 0 1.308-.351 1.723-1.051.355-.58.533-1.27.533-2.066z"/><path d="m103.359 23.2079c-.19-.035-.392-.053-.605-.053-.675 0-1.197.255-1.564.765-.32.45-.48 1.019-.48 1.705v4.531h-1.918l.018-5.917c0-.995-.024-1.902-.072-2.719h1.671l.07 1.652h.053c.202-.568.522-1.025.959-1.368.427-.309.889-.463 1.387-.463.177 0 .338.013.48.035.001.002.001 1.832.001 1.832z"/><path d="m111.94 25.4299c0 .344-.022.634-.07.87h-5.756c.022.853.301 1.506.835 1.956.485.402 1.112.604 1.883.604.852 0 1.63-.136 2.329-.409l.301 1.332c-.817.356-1.782.534-2.895.534-1.339 0-2.39-.394-3.155-1.182-.763-.788-1.146-1.845-1.146-3.172 0-1.302.355-2.387 1.067-3.252.745-.923 1.752-1.385 3.02-1.385 1.245 0 2.187.462 2.827 1.385.506.734.76 1.641.76 2.719zm-1.829-.498c.013-.569-.113-1.06-.373-1.475-.332-.534-.842-.8-1.529-.8-.627 0-1.138.26-1.527.782-.32.415-.509.913-.568 1.492z"/><path d="m45.291 12.7412.8526.2153c-.1788.7002-.501 1.2349-.9668 1.604-.4629.3663-1.0298.5494-1.7007.5494-.6944 0-1.2598-.1407-1.6963-.4219-.4336-.2842-.7647-.6943-.9932-1.2305-.2256-.5361-.3384-1.1118-.3384-1.727 0-.6709.1275-1.2554.3824-1.75345.2578-.50098.6225-.88037 1.0942-1.13818.4746-.26075.9961-.39112 1.5645-.39112.6445 0 1.1865.16407 1.6259.49219.4395.32813.7456.78955.9185 1.38426l-.8394.1978c-.1494-.4688-.3662-.81009-.6504-1.02395-.2841-.21387-.6416-.3208-1.0722-.3208-.4951 0-.9097.11865-1.2437.35595-.331.23731-.5639.5566-.6987.958-.1348.3984-.2022.8101-.2022 1.2349 0 .5478.0791 1.0268.2374 1.437.1611.4072.4101.7119.747.914.3369.2022.7017.3033 1.0943.3033.4775 0 .8818-.1377 1.2129-.4131.331-.2754.5551-.6841.6723-1.2261zm1.8018-2.4082h.791v2.0171c.2519 0 .4277-.0483.5273-.145.1026-.0967.252-.378.4483-.8438.1552-.3691.2812-.6123.3779-.7295s.208-.1963.334-.2373.3281-.0615.6064-.0615h.1582v.6548l-.2197-.0044c-.208 0-.3413.0308-.3999.0923-.0615.0644-.1553.2563-.2812.5757-.1202.3047-.23.5156-.3296.6328s-.2534.2241-.4615.3208c.3399.0908.6739.4072 1.002.9492l.8657 1.4458h-.8701l-.8437-1.4458c-.1729-.29-.3238-.4805-.4527-.5713-.1289-.0937-.2827-.1406-.4614-.1406v2.1577h-.791zm7.1894 4.0913c-.2929.249-.5757.4248-.8481.5274-.2695.1025-.5596.1538-.8701.1538-.5127 0-.9068-.1245-1.1822-.3736-.2754-.2519-.413-.5727-.413-.9624 0-.2285.0512-.4365.1538-.624.1054-.1904.2417-.3428.4086-.457.17-.1143.3604-.2007.5713-.2593.1553-.041.3897-.0806.7032-.1187.6386-.0761 1.1089-.1669 1.4106-.2724.0029-.1084.0044-.1773.0044-.2066 0-.3222-.0747-.5493-.2241-.6811-.2022-.1787-.5025-.2681-.9009-.2681-.3721 0-.6475.0659-.8262.1978-.1757.1289-.3061.3589-.3911.6899l-.7734-.1054c.0703-.3311.186-.5977.3471-.7999.1612-.205.3941-.3618.6988-.4702.3047-.1113.6577-.167 1.0591-.167.3984 0 .7221.0469.9712.1407.249.0937.4321.2124.5493.3559.1172.1406.1992.3194.2461.5362.0263.1347.0395.3779.0395.7294v1.0547c0 .7354.0161 1.2012.0484 1.3975.0351.1934.1025.3794.2021.5581h-.8262c-.082-.1641-.1347-.356-.1582-.5757zm-.0659-1.7666c-.2871.1172-.7178.2168-1.292.2988-.3252.0469-.5552.0997-.6899.1582-.1348.0586-.2388.1451-.312.2593-.0733.1114-.1099.2359-.1099.3736 0 .2109.0791.3867.2373.5273.1611.1406.3955.2109.7031.2109.3047 0 .5757-.0659.813-.1977.2373-.1348.4116-.3179.523-.5493.0849-.1787.1274-.4424.1274-.791zm1.5381-2.3247h.791v.8833c0 .3809.022.6577.0659.8306.0469.1699.1568.3193.3296.4482.1729.126.3897.189.6504.189.2988 0 .6856-.0791 1.1602-.2373v-2.1138h.791v4.667h-.791v-1.8809c-.4864.1524-.9405.2286-1.3623.2286-.3545 0-.668-.0894-.9405-.2681-.2695-.1817-.4526-.4028-.5493-.6636-.0967-.2607-.145-.5478-.145-.8613zm8.0288 4.0913c-.293.249-.5757.4248-.8481.5274-.2696.1025-.5596.1538-.8702.1538-.5127 0-.9067-.1245-1.1821-.3736-.2754-.2519-.4131-.5727-.4131-.9624 0-.2285.0513-.4365.1538-.624.1055-.1904.2417-.3428.4087-.457.1699-.1143.3604-.2007.5713-.2593.1553-.041.3897-.0806.7031-.1187.6387-.0761 1.1089-.1669 1.4107-.2724.0029-.1084.0044-.1773.0044-.2066 0-.3222-.0747-.5493-.2241-.6811-.2022-.1787-.5025-.2681-.9009-.2681-.3721 0-.6475.0659-.8262.1978-.1758.1289-.3061.3589-.3911.6899l-.7734-.1054c.0703-.3311.186-.5977.3471-.7999.1612-.205.3941-.3618.6988-.4702.3046-.1113.6577-.167 1.059-.167.3985 0 .7222.0469.9712.1407.2491.0937.4322.2124.5493.3559.1172.1406.1993.3194.2461.5362.0264.1347.0396.3779.0396.7294v1.0547c0 .7354.0161 1.2012.0483 1.3975.0352.1934.1026.3794.2022.5581h-.8262c-.082-.1641-.1348-.356-.1582-.5757zm-.0659-1.7666c-.2871.1172-.7178.2168-1.292.2988-.3252.0469-.5552.0997-.6899.1582-.1348.0586-.2388.1451-.3121.2593-.0732.1114-.1098.2359-.1098.3736 0 .2109.0791.3867.2373.5273.1611.1406.3955.2109.7031.2109.3047 0 .5757-.0659.813-.1977.2373-.1348.4116-.3179.5229-.5493.085-.1787.1275-.4424.1275-.791zm1.4018-2.3247h3.7925v.6548h-1.5029v4.0122h-.7866v-4.0122h-1.503zm4.5352 0h.791v1.8237h1.002c.6533 0 1.1557.1275 1.5073.3824.3545.2519.5317.6005.5317 1.0459 0 .3896-.1479.7236-.4438 1.0019-.293.2754-.7632.4131-1.4107.4131h-1.9775zm.791 4.0166h.8306c.501 0 .8584-.0615 1.0722-.1846.2139-.123.3208-.3149.3208-.5756 0-.2022-.0791-.3824-.2373-.5406s-.5083-.2373-1.0503-.2373h-.936zm6.4248-4.0166h1.8237c.4483 0 .7808.0381.9976.1143.2197.0732.4072.2094.5625.4087.1582.1992.2373.4379.2373.7163 0 .2226-.0469.4174-.1406.5844-.0908.1641-.2285.3018-.4131.4131.2197.0733.4014.211.5449.4131.1465.1992.2197.4365.2197.7119-.0292.4424-.1875.7705-.4746.9844s-.7046.3208-1.2524.3208h-2.105zm.791 1.9644h.8438c.3369 0 .5683-.0176.6943-.0528.126-.0351.2388-.1054.3384-.2109.0996-.1084.1494-.2373.1494-.3867 0-.2461-.0879-.4175-.2637-.5142-.1728-.0967-.4702-.145-.8921-.145h-.8701zm0 2.0522h1.0415c.4483 0 .7559-.0513.9229-.1538.167-.1055.2549-.2856.2637-.5405 0-.1494-.0484-.2871-.1451-.4131-.0966-.1289-.2226-.2095-.3779-.2417-.1553-.0352-.4043-.0527-.7471-.0527h-.958z"/></g></svg>