<svg height="40" viewBox="0 0 128 40" width="128" xmlns="http://www.w3.org/2000/svg"><rect fill="#221f1f" height="39" rx="3.5" stroke="#4d4b4b" width="127" x=".5" y=".5"/><path d="m11.3916 8.35181c-.262.277-.417.707-.417 1.265v19.90399c0 .558.155.987.417 1.264l11.217-11.217z" fill="#00e3ff"/><path d="m11.4576 8.28687-.066.065c.022-.023.053-.033.076-.055z" fill="#00e3ff"/><path d="m11.4586 30.8499.01-.01c-.024-.021-.055-.031-.077-.055z" fill="#00e3ff"/><path d="m30.8136 18.2698-4.404-2.502h-.001l-3.8 3.8 3.8 3.802-.085.049.085-.048 4.404-2.502c1.259-.715 1.259-1.884.001-2.599z" fill="#ffe000"/><path d="m22.6086 19.5679-11.217 11.217c.022.024.053.034.077.055.42.376 1.063.415 1.793 0l13.063-7.421.085-.049z" fill="#ff3a44"/><path d="m22.6086 19.5688 3.8-3.801.001-.001-13.148-7.46999c-.73-.415-1.375-.376-1.794 0-.023.022-.054.03199-.076.05499z" fill="#00f076"/><g fill="#fff"><path d="m56.0029 22.233c-2.117 0-3.842 1.609-3.842 3.828 0 2.204 1.725 3.828 3.842 3.828s3.842-1.624 3.842-3.828c0-2.218-1.725-3.828-3.842-3.828zm0 6.148c-1.16 0-2.16-.957-2.16-2.32 0-1.377 1-2.32 2.16-2.32s2.16.942 2.16 2.32c.001 1.363-1 2.32-2.16 2.32z"/><path d="m64.385 22.233c-2.117 0-3.842 1.609-3.842 3.828 0 2.204 1.725 3.828 3.842 3.828s3.842-1.624 3.842-3.828c.001-2.218-1.725-3.828-3.842-3.828zm0 6.148c-1.16 0-2.16-.957-2.16-2.32 0-1.377 1.001-2.32 2.16-2.32s2.16.942 2.16 2.32c.001 1.363-1 2.32-2.16 2.32z"/><path d="m100.985 18.406h-1.6791v11.251h1.6791z"/><path d="m46.032 23.409v1.623h3.886c-.116.913-.42 1.58-.885 2.044-.565.565-1.45 1.189-3.001 1.189-2.392 0-4.263-1.928-4.263-4.321s1.87-4.321 4.263-4.321c1.291 0 2.233.508 2.929 1.16l1.145-1.145c-.971-.928-2.262-1.638-4.074-1.638-3.277 0-6.032 2.668-6.032 5.945s2.755 5.945 6.032 5.945c1.769 0 3.103-.58 4.147-1.667 1.073-1.073 1.407-2.581 1.407-3.799 0-.377-.029-.725-.087-1.015z"/><path d="m105.11 22.213c-1.216 0-2.475.536-2.996 1.723l1.491.622c.318-.622.912-.825 1.534-.825.868 0 1.751.521 1.766 1.447v.116c-.304-.174-.955-.434-1.751-.434-1.607 0-3.242.883-3.242 2.533 0 1.505 1.317 2.475 2.794 2.475 1.129 0 1.751-.507 2.142-1.1h.058v.868h1.621v-4.314c-.001-1.997-1.492-3.111-3.417-3.111zm-.203 6.166c-.55 0-1.317-.275-1.317-.955 0-.868.955-1.201 1.78-1.201.738 0 1.086.159 1.534.376-.129 1.042-1.027 1.78-1.997 1.78z"/><path d="m112.507 27.337h-.058l-1.997-4.878h-1.809l2.996 6.818-1.708 3.792h1.751l4.618-10.61h-1.868z"/><path d="m74.6751 23.089h-.059c-.377-.449-1.102-.855-2.015-.855-1.914 0-3.668 1.682-3.668 3.842 0 2.146 1.754 3.813 3.668 3.813.913 0 1.638-.406 2.015-.87h.058v.551c0 1.464-.783 2.247-2.044 2.247-1.029 0-1.667-.739-1.928-1.363l-1.464.609c.42 1.015 1.537 2.262 3.393 2.262 1.972 0 3.639-1.16 3.639-3.987v-6.873h-1.595zm-1.93 5.292c-1.16 0-2.131-.971-2.131-2.305 0-1.348.972-2.334 2.131-2.334 1.145 0 2.044.986 2.044 2.334.001 1.334-.898 2.305-2.044 2.305z"/><path d="m94.6881 18.406h-4.024v11.251h1.679v-4.263h2.345c1.862 0 3.691-1.348 3.691-3.494s-1.829-3.494-3.691-3.494zm.044 5.422h-2.389v-3.857h2.388c1.256 0 1.969 1.04 1.969 1.928 0 .873-.713 1.929-1.968 1.929z"/><path d="m79.111 18.406h-1.682v11.251h1.682z"/><path d="m86.8101 24.669c-.319-.855-1.29-2.436-3.277-2.436-1.972 0-3.61 1.551-3.61 3.828 0 2.146 1.624 3.828 3.799 3.828 1.754 0 2.769-1.073 3.19-1.696l-1.305-.87c-.435.638-1.029 1.058-1.885 1.058s-1.464-.392-1.856-1.16l5.118-2.117zm-5.22 1.276c-.044-1.479 1.145-2.233 2.001-2.233.667 0 1.233.333 1.421.812z"/><path d="m45.291 12.7412.8526.2153c-.1788.7002-.501 1.2349-.9668 1.604-.4629.3663-1.0298.5494-1.7007.5494-.6944 0-1.2598-.1407-1.6963-.4219-.4336-.2842-.7647-.6943-.9932-1.2305-.2256-.5361-.3384-1.1118-.3384-1.727 0-.6709.1275-1.2554.3824-1.75345.2578-.50098.6225-.88037 1.0942-1.13818.4746-.26075.9961-.39112 1.5645-.39112.6445 0 1.1865.16407 1.6259.49219.4395.32813.7456.78955.9185 1.38426l-.8394.1978c-.1494-.4688-.3662-.81009-.6504-1.02395-.2841-.21387-.6416-.3208-1.0722-.3208-.4951 0-.9097.11865-1.2437.35595-.331.23731-.5639.5566-.6987.958-.1348.3984-.2022.8101-.2022 1.2349 0 .5478.0791 1.0268.2374 1.437.1611.4072.4101.7119.747.914.3369.2022.7017.3033 1.0943.3033.4775 0 .8818-.1377 1.2129-.4131.331-.2754.5551-.6841.6723-1.2261zm1.8018-2.4082h.791v2.0171c.2519 0 .4277-.0483.5273-.145.1026-.0967.252-.378.4483-.8438.1552-.3691.2812-.6123.3779-.7295s.208-.1963.334-.2373.3281-.0615.6064-.0615h.1582v.6548l-.2197-.0044c-.208 0-.3413.0308-.3999.0923-.0615.0644-.1553.2563-.2812.5757-.1202.3047-.23.5156-.3296.6328s-.2534.2241-.4615.3208c.3399.0908.6739.4072 1.002.9492l.8657 1.4458h-.8701l-.8437-1.4458c-.1729-.29-.3238-.4805-.4527-.5713-.1289-.0937-.2827-.1406-.4614-.1406v2.1577h-.791zm7.1894 4.0913c-.2929.249-.5757.4248-.8481.5274-.2695.1025-.5596.1538-.8701.1538-.5127 0-.9068-.1245-1.1822-.3736-.2754-.2519-.413-.5727-.413-.9624 0-.2285.0512-.4365.1538-.624.1054-.1904.2417-.3428.4086-.457.17-.1143.3604-.2007.5713-.2593.1553-.041.3897-.0806.7032-.1187.6386-.0761 1.1089-.1669 1.4106-.2724.0029-.1084.0044-.1773.0044-.2066 0-.3222-.0747-.5493-.2241-.6811-.2022-.1787-.5025-.2681-.9009-.2681-.3721 0-.6475.0659-.8262.1978-.1757.1289-.3061.3589-.3911.6899l-.7734-.1054c.0703-.3311.186-.5977.3471-.7999.1612-.205.3941-.3618.6988-.4702.3047-.1113.6577-.167 1.0591-.167.3984 0 .7221.0469.9712.1407.249.0937.4321.2124.5493.3559.1172.1406.1992.3194.2461.5362.0263.1347.0395.3779.0395.7294v1.0547c0 .7354.0161 1.2012.0484 1.3975.0351.1934.1025.3794.2021.5581h-.8262c-.082-.1641-.1347-.356-.1582-.5757zm-.0659-1.7666c-.2871.1172-.7178.2168-1.292.2988-.3252.0469-.5552.0997-.6899.1582-.1348.0586-.2388.1451-.312.2593-.0733.1114-.1099.2359-.1099.3736 0 .2109.0791.3867.2373.5273.1611.1406.3955.2109.7031.2109.3047 0 .5757-.0659.813-.1977.2373-.1348.4116-.3179.523-.5493.0849-.1787.1274-.4424.1274-.791zm1.5381-2.3247h.791v.8833c0 .3809.022.6577.0659.8306.0469.1699.1568.3193.3296.4482.1729.126.3897.189.6504.189.2988 0 .6856-.0791 1.1602-.2373v-2.1138h.791v4.667h-.791v-1.8809c-.4864.1524-.9405.2286-1.3623.2286-.3545 0-.668-.0894-.9405-.2681-.2695-.1817-.4526-.4028-.5493-.6636-.0967-.2607-.145-.5478-.145-.8613zm8.0288 4.0913c-.293.249-.5757.4248-.8481.5274-.2696.1025-.5596.1538-.8702.1538-.5127 0-.9067-.1245-1.1821-.3736-.2754-.2519-.4131-.5727-.4131-.9624 0-.2285.0513-.4365.1538-.624.1055-.1904.2417-.3428.4087-.457.1699-.1143.3604-.2007.5713-.2593.1553-.041.3897-.0806.7031-.1187.6387-.0761 1.1089-.1669 1.4107-.2724.0029-.1084.0044-.1773.0044-.2066 0-.3222-.0747-.5493-.2241-.6811-.2022-.1787-.5025-.2681-.9009-.2681-.3721 0-.6475.0659-.8262.1978-.1758.1289-.3061.3589-.3911.6899l-.7734-.1054c.0703-.3311.186-.5977.3471-.7999.1612-.205.3941-.3618.6988-.4702.3046-.1113.6577-.167 1.059-.167.3985 0 .7222.0469.9712.1407.2491.0937.4322.2124.5493.3559.1172.1406.1993.3194.2461.5362.0264.1347.0396.3779.0396.7294v1.0547c0 .7354.0161 1.2012.0483 1.3975.0352.1934.1026.3794.2022.5581h-.8262c-.082-.1641-.1348-.356-.1582-.5757zm-.0659-1.7666c-.2871.1172-.7178.2168-1.292.2988-.3252.0469-.5552.0997-.6899.1582-.1348.0586-.2388.1451-.3121.2593-.0732.1114-.1098.2359-.1098.3736 0 .2109.0791.3867.2373.5273.1611.1406.3955.2109.7031.2109.3047 0 .5757-.0659.813-.1977.2373-.1348.4116-.3179.5229-.5493.085-.1787.1275-.4424.1275-.791zm1.4018-2.3247h3.7925v.6548h-1.5029v4.0122h-.7866v-4.0122h-1.503zm4.5352 0h.791v1.8237h1.002c.6533 0 1.1557.1275 1.5073.3824.3545.2519.5317.6005.5317 1.0459 0 .3896-.1479.7236-.4438 1.0019-.293.2754-.7632.4131-1.4107.4131h-1.9775zm.791 4.0166h.8306c.501 0 .8584-.0615 1.0722-.1846.2139-.123.3208-.3149.3208-.5756 0-.2022-.0791-.3824-.2373-.5406s-.5083-.2373-1.0503-.2373h-.936zm6.4248-4.0166h1.8237c.4483 0 .7808.0381.9976.1143.2197.0732.4072.2094.5625.4087.1582.1992.2373.4379.2373.7163 0 .2226-.0469.4174-.1406.5844-.0908.1641-.2285.3018-.4131.4131.2197.0733.4014.211.5449.4131.1465.1992.2197.4365.2197.7119-.0292.4424-.1875.7705-.4746.9844s-.7046.3208-1.2524.3208h-2.105zm.791 1.9644h.8438c.3369 0 .5683-.0176.6943-.0528.126-.0351.2388-.1054.3384-.2109.0996-.1084.1494-.2373.1494-.3867 0-.2461-.0879-.4175-.2637-.5142-.1728-.0967-.4702-.145-.8921-.145h-.8701zm0 2.0522h1.0415c.4483 0 .7559-.0513.9229-.1538.167-.1055.2549-.2856.2637-.5405 0-.1494-.0484-.2871-.1451-.4131-.0966-.1289-.2226-.2095-.3779-.2417-.1553-.0352-.4043-.0527-.7471-.0527h-.958z"/></g></svg>